<svg id="Layer_1" height="512" viewBox="0 0 128 128" width="512" xmlns="http://www.w3.org/2000/svg" xmlns:xlink="http://www.w3.org/1999/xlink" data-name="Layer 1"><linearGradient id="linear-gradient" gradientUnits="userSpaceOnUse" x1="107.414" x2="21.301" y1="113.124" y2="27.012"><stop offset="0" stop-color="#2ec3fc"/><stop offset="1" stop-color="#fd5781"/></linearGradient><path d="m89.84 25.1a2.413 2.413 0 1 0 -2.413-2.413 2.415 2.415 0 0 0 2.413 2.413zm0 4.179a2.413 2.413 0 1 0 2.412 2.413 2.415 2.415 0 0 0 -2.412-2.413zm-4.5.323a2.413 2.413 0 1 0 -2.412-2.413 2.415 2.415 0 0 0 2.409 2.411zm9 0a2.413 2.413 0 1 0 -2.412-2.413 2.415 2.415 0 0 0 2.414 2.411zm-72.34 73.504a2.413 2.413 0 1 0 -2.413-2.413 2.416 2.416 0 0 0 2.413 2.413zm0 4.179a2.413 2.413 0 1 0 2.413 2.413 2.416 2.416 0 0 0 -2.413-2.413zm-4.5-4.5a2.413 2.413 0 1 0 2.41 2.415 2.416 2.416 0 0 0 -2.41-2.417zm9 0a2.413 2.413 0 1 0 2.413 2.413 2.416 2.416 0 0 0 -2.413-2.415zm13.312-78.2a1.749 1.749 0 0 0 2.475 0l4.626-4.625a1.75 1.75 0 0 0 0-2.475l-4.626-4.626a1.8 1.8 0 0 0 -2.475 0l-4.626 4.626a1.749 1.749 0 0 0 0 2.475zm1.237-8.014 2.151 2.154-2.151 2.151-2.149-2.151zm64.416 86.771a1.8 1.8 0 0 0 -2.475 0l-4.625 4.626a1.749 1.749 0 0 0 0 2.475l4.625 4.626a1.749 1.749 0 0 0 2.475 0l4.626-4.626a1.75 1.75 0 0 0 0-2.475zm-1.237 8.014-2.15-2.151 2.15-2.15 2.151 2.15zm-40.228-35.004a1.744 1.744 0 0 0 1.237-.513l4.763-4.763a1.749 1.749 0 0 0 0-2.476l-4.764-4.764a1.749 1.749 0 0 0 -2.475 0l-4.761 4.764a1.749 1.749 0 0 0 0 2.475l4.764 4.764a1.744 1.744 0 0 0 1.236.513zm0-8.8 2.289 2.289-2.289 2.286-2.289-2.289zm28.258 18.286a1.75 1.75 0 0 1 1.4-2.043c.342-.064.677-.129 1.008-.2a1.75 1.75 0 1 1 .686 3.432q-.514.1-1.047.2a1.746 1.746 0 0 1 -2.043-1.4zm18.426-50.885a9.542 9.542 0 0 0 -9.031 12.69l-20.618 12.657-4.4-6.963a71.441 71.441 0 0 1 7.643 1.507 1.75 1.75 0 1 0 .875-3.389 77.735 77.735 0 0 0 -10.935-1.955l-3.682-5.831a9.566 9.566 0 1 0 -13.073 0l-10.498 16.631-7.041-4.321a59.5 59.5 0 0 1 6.452-1.762 1.75 1.75 0 1 0 -.734-3.422 59 59 0 0 0 -9.518 2.851l-9.775-6a9.573 9.573 0 1 0 -1.731 3.044l21.99 13.5a1.75 1.75 0 0 0 2.4-.558l11.4-18.062a9.492 9.492 0 0 0 7.187 0l11.405 18.055a1.75 1.75 0 0 0 2.395.558l21.991-13.5a9.61 9.61 0 0 0 3.494 2.6l-8.2 37.2a1.722 1.722 0 0 0 -.039.291c-1.019 1.9-13.332 5.245-34.638 5.245s-33.618-3.342-34.637-5.245a1.735 1.735 0 0 0 -.039-.291l-.988-4.481c8.051 2.246 21.252 3.598 35.661 3.598a198.889 198.889 0 0 0 22.443-1.2 1.75 1.75 0 0 0 -.4-3.477 195.407 195.407 0 0 1 -22.043 1.177c-15.1 0-29.228-1.567-36.529-4.016l-5.1-23.142a1.75 1.75 0 1 0 -3.418.754l6.92 31.4c.192 2.826 4.042 4.858 12.074 6.382a146.82 146.82 0 0 0 26.053 2.05 146.824 146.824 0 0 0 26.054-2.053c8.031-1.524 11.882-3.557 12.074-6.382l8.162-37.027c.131.005.26.02.393.02a9.566 9.566 0 1 0 0-19.132zm-93.368 15.632a6.07 6.07 0 1 1 5.327-3.167 6.071 6.071 0 0 1 -5.327 3.167zm40.618-13.885a6.066 6.066 0 1 1 6.066 6.07 6.073 6.073 0 0 1 -6.066-6.07zm52.749 13.882a6.066 6.066 0 1 1 6.066-6.066 6.072 6.072 0 0 1 -6.065 6.069z" fill="url(#linear-gradient)"/></svg>