<?xml version="1.0" encoding="iso-8859-1"?>
<!-- Generator: Adobe Illustrator 19.0.0, SVG Export Plug-In . SVG Version: 6.00 Build 0)  -->
<svg version="1.1" id="Capa_1" xmlns="http://www.w3.org/2000/svg" xmlns:xlink="http://www.w3.org/1999/xlink" x="0px" y="0px"
	 viewBox="0 0 512 512" style="enable-background:new 0 0 512 512;" xml:space="preserve">
<polygon style="fill:#4398D1;" points="469.333,328.533 42.667,328.533 42.667,64 230.4,64 230.4,29.867 469.333,29.867 "/>
<rect x="42.667" y="132.267" style="fill:#DE4C3C;" width="426.667" height="145.067"/>
<rect x="59.733" y="29.867" style="fill:#FDB62F;" width="51.2" height="34.133"/>
<g>
	<path style="fill:#4398D1;" d="M8.533,166.4c0,9.429,7.637,17.067,17.067,17.067h17.067v-34.133H25.6
		C16.171,149.333,8.533,156.971,8.533,166.4z"/>
	<path style="fill:#4398D1;" d="M486.4,149.333h-17.067v34.133H486.4c9.429,0,17.067-7.637,17.067-17.067
		S495.829,149.333,486.4,149.333z"/>
</g>
<rect x="384" y="64" style="fill:#87CED9;" width="51.2" height="34.133"/>
<circle style="fill:#E5E5E5;" cx="119.467" cy="132.267" r="17.067"/>
<rect x="145.067" y="29.867" style="fill:#FDB62F;" width="51.2" height="34.133"/>
<path style="fill:#4398D1;" d="M409.6,185.037V166.4c0-4.71-3.823-8.533-8.533-8.533s-8.533,3.823-8.533,8.533v18.637
	c-13.329,4.71-20.318,19.337-15.599,32.666c4.71,13.329,19.337,20.318,32.666,15.599c13.329-4.719,20.318-19.337,15.599-32.666
	C422.622,193.348,416.887,187.614,409.6,185.037z M401.067,217.6c-4.71,0-8.533-3.823-8.533-8.533s3.823-8.533,8.533-8.533
	s8.533,3.823,8.533,8.533S405.777,217.6,401.067,217.6z"/>
<rect x="162.133" y="89.6" style="fill:#87CED9;" width="25.6" height="17.067"/>
<path style="fill:#CFCFCF;" d="M401.067,490.667H34.133C15.283,490.667,0,475.383,0,456.533V166.4c0-4.71,3.823-8.533,8.533-8.533
	s8.533,3.823,8.533,8.533v290.133c0,9.429,7.637,17.067,17.067,17.067h366.933c9.429,0,17.067-7.637,17.067-17.067
	s-7.637-17.067-17.067-17.067h-204.8c-18.85,0-34.133-15.283-34.133-34.133s15.283-34.133,34.133-34.133h281.6
	c9.429,0,17.067-7.637,17.067-17.067V166.4c0-4.71,3.823-8.533,8.533-8.533c4.71,0,8.533,3.823,8.533,8.533v187.733
	c0,18.85-15.283,34.133-34.133,34.133h-281.6c-9.429,0-17.067,7.637-17.067,17.067c0,9.429,7.637,17.067,17.067,17.067h204.8
	c18.85,0,34.133,15.283,34.133,34.133S419.917,490.667,401.067,490.667z"/>
<path style="fill:#4398D1;" d="M153.6,174.933c-14.14,0-25.6,11.46-25.6,25.6c0,14.14,11.46,25.6,25.6,25.6h25.6v-51.2H153.6z"/>
<circle style="fill:#E5E5E5;" cx="256" cy="200.533" r="93.867"/>
<circle style="fill:#87CED9;" cx="256" cy="200.533" r="59.733"/>
<path style="fill:#71C4D1;" d="M283.426,147.507l-80.452,80.452c15.104,29.329,51.123,40.866,80.452,25.762
	c29.329-15.104,40.866-51.123,25.762-80.452C303.488,162.21,294.485,153.199,283.426,147.507z"/>
<path d="M486.4,140.8h-8.533V29.867c0-4.71-3.823-8.533-8.533-8.533H230.4c-4.71,0-8.533,3.823-8.533,8.533v25.6H204.8v-25.6
	c0-4.71-3.823-8.533-8.533-8.533h-51.2c-4.71,0-8.533,3.823-8.533,8.533v25.6h-17.067v-25.6c0-4.71-3.823-8.533-8.533-8.533h-51.2
	c-4.71,0-8.533,3.823-8.533,8.533v25.6h-8.533c-4.71,0-8.533,3.823-8.533,8.533v76.8H25.6C11.46,140.8,0,152.26,0,166.4v290.133
	c0,18.85,15.283,34.133,34.133,34.133h366.933c18.85,0,34.133-15.283,34.133-34.133S419.917,422.4,401.067,422.4h-204.8
	c-9.429,0-17.067-7.637-17.067-17.067c0-9.429,7.637-17.067,17.067-17.067h281.6c18.85,0,34.133-15.283,34.133-34.133V166.4
	C512,152.26,500.54,140.8,486.4,140.8z M95.437,140.8c4.625,13.269,19.132,20.284,32.401,15.659
	c7.339-2.551,13.099-8.32,15.659-15.659h29.5c-5.769,7.996-10.351,16.777-13.602,26.086c-18.586-3.174-36.215,9.318-39.39,27.904
	c-3.174,18.586,9.318,36.215,27.904,39.39c3.797,0.649,7.68,0.649,11.486,0c4.48,12.783,11.443,24.55,20.497,34.62H51.2v-128H95.437
	z M110.933,132.267c0-4.71,3.823-8.533,8.533-8.533c4.71,0,8.533,3.823,8.533,8.533s-3.823,8.533-8.533,8.533
	C114.756,140.8,110.933,136.977,110.933,132.267z M256,285.867c-47.13,0-85.333-38.204-85.333-85.333S208.87,115.2,256,115.2
	s85.333,38.204,85.333,85.333C341.282,247.637,303.104,285.815,256,285.867z M155.119,217.472c-0.503,0-1.007,0.128-1.519,0.128
	c-9.429,0-17.067-7.637-17.067-17.067c0-9.429,7.637-17.067,17.067-17.067c0.512,0,1.015,0.085,1.519,0.128
	C153.097,194.799,153.097,206.268,155.119,217.472z M51.2,285.867h148.318c34.219,22.758,78.746,22.758,112.964,0H460.8V320H51.2
	V285.867z M460.8,268.8H332.109c32.273-35.669,35.149-89.071,6.895-128H460.8V268.8z M153.6,38.4h34.133v17.067H153.6V38.4z
	 M68.267,38.4H102.4v17.067H68.267V38.4z M59.733,72.533H230.4c4.71,0,8.533-3.823,8.533-8.533V38.4H460.8v85.333H324.267v0.691
	c-38.758-35.055-97.775-35.055-136.533,0v-0.691h-44.237c-4.625-13.269-19.132-20.284-32.401-15.659
	c-7.339,2.551-13.099,8.32-15.659,15.659H51.2v-51.2H59.733z M25.6,157.867h8.533v17.067H25.6c-4.71,0-8.533-3.823-8.533-8.533
	S20.89,157.867,25.6,157.867z M477.867,371.2h-281.6c-18.85,0-34.133,15.283-34.133,34.133s15.283,34.133,34.133,34.133h204.8
	c9.429,0,17.067,7.637,17.067,17.067s-7.637,17.067-17.067,17.067H34.133c-9.429,0-17.067-7.637-17.067-17.067V190.43
	c2.731,1.007,5.623,1.545,8.533,1.57h8.533v136.533c0,4.71,3.823,8.533,8.533,8.533h426.667c4.71,0,8.533-3.823,8.533-8.533V192
	h8.533c2.91-0.026,5.803-0.563,8.533-1.57v163.703C494.933,363.563,487.296,371.2,477.867,371.2z M486.4,174.933h-8.533v-17.067
	h8.533c4.71,0,8.533,3.823,8.533,8.533S491.11,174.933,486.4,174.933z"/>
<path d="M384,106.667h51.2c4.71,0,8.533-3.823,8.533-8.533V64c0-4.71-3.823-8.533-8.533-8.533H384c-4.71,0-8.533,3.823-8.533,8.533
	v34.133C375.467,102.844,379.29,106.667,384,106.667z M392.533,72.533h34.133V89.6h-34.133V72.533z"/>
<path d="M401.067,234.667c14.106,0.026,25.566-11.383,25.591-25.489c0.017-10.854-6.818-20.531-17.058-24.141V166.4
	c0-4.71-3.823-8.533-8.533-8.533s-8.533,3.823-8.533,8.533v18.637c-13.303,4.685-20.292,19.268-15.607,32.572
	C380.535,227.849,390.212,234.684,401.067,234.667z M401.067,200.533c4.71,0,8.533,3.823,8.533,8.533s-3.823,8.533-8.533,8.533
	s-8.533-3.823-8.533-8.533S396.356,200.533,401.067,200.533z"/>
<path d="M256,132.267c-37.7,0-68.267,30.566-68.267,68.267S218.3,268.8,256,268.8s68.267-30.566,68.267-68.267
	C324.224,162.85,293.683,132.309,256,132.267z M256,251.733c-28.279,0-51.2-22.921-51.2-51.2s22.921-51.2,51.2-51.2
	c28.279,0,51.2,22.921,51.2,51.2C307.174,228.796,284.262,251.708,256,251.733z"/>
<rect x="162.133" y="89.6" width="25.6" height="17.067"/>
<g>
</g>
<g>
</g>
<g>
</g>
<g>
</g>
<g>
</g>
<g>
</g>
<g>
</g>
<g>
</g>
<g>
</g>
<g>
</g>
<g>
</g>
<g>
</g>
<g>
</g>
<g>
</g>
<g>
</g>
</svg>
